<svg width="24" height="24" viewBox="0 0 24 24" fill="none" xmlns="http://www.w3.org/2000/svg">
<path d="M3 4C3 2.895 3.895 2 5 2L19 2C20.105 2 21 2.895 21 4C21 5.105 20.105 6 19 6L5 6C3.895 6 3 5.105 3 4Z" fill="#22A2BD" stroke="#22A2BD" stroke-width="1.5" stroke-linecap="round" stroke-linejoin="round"/>
<path d="M3.00041 12C3.00041 10.895 3.89541 10 5.00041 10L13.3164 10C14.4214 10 15.3164 10.895 15.3164 12C15.3164 13.105 14.4214 14 13.3164 14L5.00041 14C3.89541 14 3.00041 13.105 3.00041 12Z" fill="#22A2BD" stroke="#22A2BD" stroke-width="1.5" stroke-linecap="round" stroke-linejoin="round"/>
<path d="M2.99984 20C2.99984 18.895 3.89484 18 4.99984 18L7.63184 18C8.73684 18 9.63184 18.895 9.63184 20C9.63184 21.105 8.73684 22 7.63184 22L4.99984 22C3.89484 22 2.99984 21.105 2.99984 20Z" fill="#22A2BD" stroke="#22A2BD" stroke-width="1.5" stroke-linecap="round" stroke-linejoin="round"/>
</svg>
