<svg width="24" height="24" viewBox="0 0 24 24" fill="none" xmlns="http://www.w3.org/2000/svg">
<path d="M3 20C3 21.105 3.895 22 5 22L19 22C20.105 22 21 21.105 21 20C21 18.895 20.105 18 19 18L5 18C3.895 18 3 18.895 3 20Z" fill="#828282" stroke="#828282" stroke-width="1.5" stroke-linecap="round" stroke-linejoin="round"/>
<path d="M3.00041 12C3.00041 13.105 3.89541 14 5.00041 14L13.3164 14C14.4214 14 15.3164 13.105 15.3164 12C15.3164 10.895 14.4214 10 13.3164 10L5.00041 10C3.89541 10 3.00041 10.895 3.00041 12Z" fill="#828282" stroke="#828282" stroke-width="1.5" stroke-linecap="round" stroke-linejoin="round"/>
<path d="M2.99984 4C2.99984 5.105 3.89484 6 4.99984 6L7.63184 6C8.73684 6 9.63184 5.105 9.63184 4C9.63184 2.895 8.73684 2 7.63184 2L4.99984 2C3.89484 2 2.99984 2.895 2.99984 4Z" fill="#828282" stroke="#828282" stroke-width="1.5" stroke-linecap="round" stroke-linejoin="round"/>
</svg>
